<?xml version="1.0" encoding="utf-8"?>
<!-- Generator: Adobe Illustrator 16.0.3, SVG Export Plug-In . SVG Version: 6.00 Build 0)  -->
<!DOCTYPE svg PUBLIC "-//W3C//DTD SVG 1.1//EN" "http://www.w3.org/Graphics/SVG/1.1/DTD/svg11.dtd">
<svg version="1.1" id="Capa_1" xmlns="http://www.w3.org/2000/svg" xmlns:xlink="http://www.w3.org/1999/xlink" x="0px" y="0px"
	 width="359.22px" height="172.13px" viewBox="0 0 359.22 172.13" enable-background="new 0 0 359.22 172.13" xml:space="preserve">
<g>
	<path fill="#941A25" d="M188.285,75.158c0.843-1.32,2.529-0.88,2.529,0.659v21.122c0,1.76-2.677,1.76-2.677,0V80.255l-7.479,11.698
		c-0.587,1.063-1.979,1.063-2.53,0l-7.48-11.661v16.647c0,1.76-2.676,1.76-2.676,0V75.817c0-1.576,1.76-1.979,2.493-0.659
		l8.946,13.934L188.285,75.158z"/>
	<path fill="#941A25" d="M209.146,91.77l-2.97,5.793c-0.66,1.357-3.08,0.402-2.42-1.064l11.073-21.816
		c0.221-0.478,0.733-0.696,1.21-0.696s0.917,0.219,1.174,0.696l11.036,21.707c0.954,1.576-1.76,2.494-2.456,1.064l-2.86-5.684
		H209.146z M216.04,77.908l-5.793,11.551h11.55L216.04,77.908z"/>
	<path fill="#941A25" d="M242.292,97.93c-0.916,0-1.687-0.734-1.687-1.578V76.147c0-0.843,0.771-1.539,1.687-1.539h7.994
		c7.297,0,10.927,5.83,10.927,11.66c0,5.831-3.63,11.661-10.927,11.661H242.292z M243.246,95.545h7.04c5.5,0,8.25-4.656,8.25-9.276
		c0-4.621-2.75-9.314-8.25-9.314h-7.04V95.545z"/>
</g>
<g>
	<path fill="#941A25" d="M293.223,74.571c0.88,0,0.88,1.1,0,1.1h-9.497l0.037,21.708c0,0.477-0.366,0.697-0.66,0.697
		c-0.293,0-0.623-0.221-0.623-0.697V75.671h-9.46c-0.88,0-0.88-1.1,0-1.1C279.729,74.571,286.476,74.571,293.223,74.571z"/>
	<path fill="#941A25" d="M307.778,96.756h16.207c0.771,0,0.771,1.174,0,1.174h-16.427c-0.587,0-0.99-0.441-0.99-0.99V75.562
		c0-0.514,0.403-0.953,0.99-0.953h16.464c0.733,0,0.733,1.1-0.037,1.1h-16.207v10.12h15.474c0.771,0,0.771,1.101,0,1.101h-15.474
		V96.756z"/>
	<path fill="#941A25" d="M355.078,97.012c-8.287,4.18-17.637-1.943-17.344-11.11c0.146-6.197,4.106-10.743,9.863-11.66
		c4.327-0.55,7.773,0.146,10.927,3.52c0.55,0.66-0.33,1.32-0.88,0.734c-2.97-3.227-5.867-3.521-9.863-3.043
		c-5.17,0.807-8.727,4.546-8.874,10.486c-0.22,8.104,8.177,13.751,15.657,9.974c1.32-0.66,2.53-1.65,3.446-2.822
		c0.514-0.734,1.467,0,0.954,0.695C357.975,95.18,356.654,96.242,355.078,97.012z"/>
</g>
<linearGradient id="SVGID_1_" gradientUnits="userSpaceOnUse" x1="90.5703" y1="76.3921" x2="123.2432" y2="76.3921">
	<stop  offset="0" style="stop-color:#42000D"/>
	<stop  offset="0.2347" style="stop-color:#42000D"/>
	<stop  offset="0.2353" style="stop-color:#42000D"/>
	<stop  offset="0.2942" style="stop-color:#5D0818"/>
	<stop  offset="0.3522" style="stop-color:#73121E"/>
	<stop  offset="0.4084" style="stop-color:#851722"/>
	<stop  offset="0.462" style="stop-color:#901924"/>
	<stop  offset="0.5102" style="stop-color:#941A25"/>
	<stop  offset="0.7129" style="stop-color:#B21D2B"/>
	<stop  offset="0.8265" style="stop-color:#BE1E2D"/>
	<stop  offset="1" style="stop-color:#BE1E2D"/>
</linearGradient>
<polygon fill="url(#SVGID_1_)" points="119.438,120.412 123.243,32.372 90.57,69.019 "/>
<linearGradient id="SVGID_2_" gradientUnits="userSpaceOnUse" x1="-0.1084" y1="86.0649" x2="90.189" y2="86.0649">
	<stop  offset="0" style="stop-color:#BE1E2D"/>
	<stop  offset="0.6735" style="stop-color:#BE1E2D"/>
	<stop  offset="0.7523" style="stop-color:#B21D2B"/>
	<stop  offset="0.8929" style="stop-color:#941A25"/>
	<stop  offset="1" style="stop-color:#42000D"/>
</linearGradient>
<polygon fill="url(#SVGID_2_)" points="-0.108,172.131 52.082,-0.001 90.189,69.142 "/>
<linearGradient id="SVGID_3_" gradientUnits="userSpaceOnUse" x1="74.3823" y1="83.3804" x2="123.2432" y2="83.3804">
	<stop  offset="0" style="stop-color:#42000D"/>
	<stop  offset="0.0765" style="stop-color:#42000D"/>
	<stop  offset="0.1282" style="stop-color:#4D0012"/>
	<stop  offset="0.23" style="stop-color:#6B0F1C"/>
	<stop  offset="0.3367" style="stop-color:#941A25"/>
	<stop  offset="0.3405" style="stop-color:#971A25"/>
	<stop  offset="0.377" style="stop-color:#AC1D2A"/>
	<stop  offset="0.412" style="stop-color:#BA1E2C"/>
	<stop  offset="0.4439" style="stop-color:#BE1E2D"/>
	<stop  offset="1" style="stop-color:#BE1E2D"/>
</linearGradient>
<polygon fill="url(#SVGID_3_)" points="123.243,32.372 86.461,134.389 74.382,87.174 "/>
<polygon fill="#BE1E2D" points="52.082,-0.001 86.461,134.389 102.388,90.207 "/>
</svg>
